# xmcd
#
# Track frame offsets: 
#        150
#        9501
#        22294
#        39922
#        50961
#        64104
#        76517
#        86195
#        97711
#        112651
#        128314
#        142878
#        153163
#        163899
#        173824
#        188483
#        202679
#        215969
#
# Disc length: 3007 seconds
#
# Revision: 1
# Processed by: cddbd v1.5.2PL0 Copyright (c) Steve Scherf et al.
# Submitted via: ExactAudioCopy v1.0b1
#
DISCID=db0bbd12
DTITLE=Various Artist - funk a go go pt 2
DYEAR=1900
DGENRE=Funk
TTITLE0=Keith Mansfiled - Morning Broadway
TTITLE1=Ellerine - All I Need
TTITLE2=Oliver Nelson - 125th To 110th Street
TTITLE3=Wild Bill Davis - Hit The Road Jack
TTITLE4=Nina Simone - Be's That Way Sometime
TTITLE5=Life - Try God's Way
TTITLE6=Ray Barretto - Senor 007
TTITLE7=Leni Groves Phil Moore - Grooving
TTITLE8=Ray Terrace - Manteca
TTITLE9=Pete Terrace - Boogaloo
TTITLE10=Ossie Torrens - Day Tripper
TTITLE11=Peggy Lee - Sneakin Up On You
TTITLE12=Sarah Vaughn - Sneakin Up On You
TTITLE13=Damita Jo - I Don't Wanna
TTITLE14=Ossie Torrens - Mias Mambo
TTITLE15=Lorenz Alexander - Baltimore Oriole
TTITLE16=Memphis Black - Testify
TTITLE17=Wynder K Frog - Soul Man
EXTD=
EXTT0=
EXTT1=
EXTT2=
EXTT3=
EXTT4=
EXTT5=
EXTT6=
EXTT7=
EXTT8=
EXTT9=
EXTT10=
EXTT11=
EXTT12=
EXTT13=
EXTT14=
EXTT15=
EXTT16=
EXTT17=
PLAYORDER=
